# xmcd
#
# Track frame offsets: 
#        150
#        22345
#        36991
#        56276
#        70603
#        95390
#        111355
#        125606
#        142005
#        162869
#        175259
#        216353
#        227758
#
# Disc length: 3354 seconds
#
# Revision: 0
# Processed by: cddbd v1.5.2PL0 Copyright (c) Steve Scherf et al.
# Submitted via: ExactAudioCopy v1.3
#
DISCID=bc0d180d
DTITLE=Black Cat Bone Blues Band - Blues italiano
DYEAR=2011
DGENRE=Chicago Blues
TTITLE0=Blues Italiano
TTITLE1=Espresso 924
TTITLE2=Tempi Duri
TTITLE3=Pulizia - Polizia
TTITLE4=I Miss Your Hills
TTITLE5=Padrone Mio
TTITLE6=Shame On You
TTITLE7=Blues Con Le Mani
TTITLE8=Calaggio Saxophone
TTITLE9=Jesus Tornera’
TTITLE10=Il Cuore E Quello Che Ho
TTITLE11=Never
TTITLE12=Blues and Soldi
EXTD=
EXTT0=
EXTT1=
EXTT2=
EXTT3=
EXTT4=
EXTT5=
EXTT6=
EXTT7=
EXTT8=
EXTT9=
EXTT10=
EXTT11=
EXTT12=
PLAYORDER=
